#!OML:ASF E:\emotionWalksFemale\Project 1\Capture day 1\Session 1\Female1.ASF
:FULLY-SPECIFIED
:DEGREES
181
root 8.50798 15.1428 41.7179 178.057 -4.99599 -179.499
lowerback 6.15557 2.68168 4.57091
upperback -3.95696 3.91248 -0.795237
thorax -7.25221 1.64265 -3.86678
lowerneck -0.57885 16.9056 9.01205
upperneck 5.29252 22.6895 -5.76324
head 3.69761 11.3086 -2.27707
rclavicle -1.33434e-014 5.01931e-015
rhumerus -46.6797 18.5595 -101.148
rradius 32.9241
rwrist 18.1198
rhand -3.44713 -54.6297
rfingers 7.12502
rthumb 22.2848 -83.3648
lclavicle -1.33434e-014 5.01931e-015
lhumerus -42.4339 -10.5839 92.5017
lradius 37.1898
lwrist -11.7306
lhand -5.79035 -34.1968
lfingers 7.12502
lthumb 20.0339 -5.20965
rfemur -4.85428 12.8442 23.7267
rtibia 28.3639
rfoot -24.5923 -29.6656
rtoes 4.62888
lfemur -6.2467 -22.1454 -26.1373
ltibia 28.57
lfoot -24.4366 17.6669
ltoes -29.1084
182
root 8.5091 15.1544 41.7132 178.546 -5.08541 -179.549
lowerback 5.75361 2.68005 4.48056
upperback -4.16013 3.87023 -0.841928
thorax -7.2429 1.61662 -3.84298
lowerneck -0.443998 16.8936 9.03315
upperneck 5.24361 22.6781 -5.73458
head 3.65359 11.3071 -2.28752
rclavicle 9.67833e-015 -4.57205e-015
rhumerus -46.7905 18.444 -101.164
rradius 32.9676
rwrist 18.3737
rhand -3.37575 -54.6026
rfingers 7.12502
rthumb 22.3533 -83.3294
lclavicle 9.67833e-015 -4.57205e-015
lhumerus -42.5839 -10.601 92.4852
lradius 37.2696
lwrist -11.7114
lhand -5.76406 -34.1762
lfingers 7.12502
lthumb 20.0591 -5.19164
rfemur -5.36224 12.8718 23.582
rtibia 28.3785
rfoot -24.5528 -29.8683
rtoes 5.52576
lfemur -6.81329 -21.9086 -25.919
ltibia 28.5234
lfoot -24.327 17.3652
ltoes -29.2606
183
root 8.50943 15.1475 41.7165 178.199 -5.06331 -179.612
lowerback 6.08205 2.64724 4.3892
upperback -4.0301 3.84224 -0.811859
thorax -7.30422 1.61225 -3.77316
lowerneck -0.378703 16.9194 8.97887
upperneck 5.16393 22.7145 -5.70721
head 3.60478 11.3269 -2.27923
rclavicle -8.64713e-015 3.8266e-015
rhumerus -46.7766 18.5696 -101.171
rradius 32.9424
rwrist 18.1931
rhand -3.36139 -54.5184
rfingers 7.12502
rthumb 22.3671 -83.2435
lclavicle -8.64713e-015 3.8266e-015
lhumerus -42.555 -10.5134 92.4937
lradius 37.2893
lwrist -11.7221
lhand -5.86765 -34.2317
lfingers 7.12502
lthumb 19.9596 -5.23676
rfemur -4.97714 12.8396 23.6007
rtibia 28.3858
rfoot -24.5502 -29.5122
rtoes 5.36941
lfemur -6.42321 -21.4538 -26.078
ltibia 28.5044
lfoot -24.4559 16.848
ltoes -27.7616
184
root 8.50903 15.1527 41.7168 178.435 -4.78048 -179.569
lowerback 5.85379 2.72728 4.37467
upperback -4.07827 3.93616 -0.770868
thorax -7.2182 1.66052 -3.7194
lowerneck -0.412332 16.9837 8.87262
upperneck 5.20046 22.7922 -5.55477
head 3.59238 11.3666 -2.20784
rclavicle -5.14666e-014 -7.20594e-015
rhumerus -46.7977 18.7229 -101.227
rradius 32.9385
rwrist 18.0103
rhand -3.33307 -54.6131
rfingers 7.12502
rthumb 22.3943 -83.335
lclavicle -5.14666e-014 -7.20594e-015
lhumerus -42.5363 -10.3788 92.472
lradius 37.2792
lwrist -11.8022
lhand -6.00745 -34.3764
lfingers 7.12502
lthumb 19.8252 -5.36746
rfemur -5.29841 12.9189 23.5441
rtibia 28.3815
rfoot -24.2151 -29.6296
rtoes 4.97416
lfemur -6.67677 -21.1765 -25.9154
ltibia 28.4678
lfoot -24.5022 16.7191
ltoes -26.8801
185
root 8.50884 15.1524 41.7143 178.452 -4.93004 -179.538
lowerback 5.78762 2.67054 4.38608
upperback -4.06274 3.85986 -0.734041
thorax -7.17206 1.62525 -3.67418
lowerneck -0.445781 17.0087 8.74582
upperneck 5.20135 22.8202 -5.46122
head 3.56941 11.3799 -2.15798
rclavicle 3.49364e-014 1.44119e-015
rhumerus -46.8508 18.702 -101.168
rradius 32.9932
rwrist 18.1189
rhand -3.27393 -54.6446
rfingers 7.12502
rthumb 22.4511 -83.3596
lclavicle 3.49364e-014 1.44119e-015
lhumerus -42.5633 -10.3207 92.4896
lradius 37.3294
lwrist -11.8868
lhand -5.98806 -34.6131
lfingers 7.12502
lthumb 19.8438 -5.60611
rfemur -5.27997 12.9239 23.5927
rtibia 28.3927
rfoot -24.4816 -29.3791
rtoes 4.92431
lfemur -6.71833 -21.1962 -25.8605
ltibia 28.468
lfoot -24.3139 16.7801
ltoes -28.9635
186
root 8.50773 15.1537 41.7124 178.546 -4.89504 -179.592
lowerback 5.70462 2.71203 4.30597
upperback -4.07243 3.90275 -0.741026
thorax -7.1346 1.65086 -3.63647
lowerneck -0.543639 16.9737 8.65736
upperneck 5.20832 22.7658 -5.40901
head 3.56541 11.351 -2.12612
rclavicle 2.68484e-014 3.97569e-015
rhumerus -46.8682 18.6351 -101.118
rradius 32.9778
rwrist 17.9827
rhand -3.36559 -54.5946
rfingers 7.12502
rthumb 22.3631 -83.3203
lclavicle 2.68484e-014 3.97569e-015
lhumerus -42.6056 -10.5206 92.5971
lradius 37.4398
lwrist -11.7077
lhand -5.78555 -34.4256
lfingers 7.12502
lthumb 20.0385 -5.43893
rfemur -5.3785 12.8899 23.5034
rtibia 28.3913
rfoot -24.3226 -29.7278
rtoes 4.69082
lfemur -6.77155 -21.571 -25.9461
ltibia 28.4579
lfoot -24.361 17.1759
ltoes -28.0856
187
root 8.50544 15.148 41.7087 178.303 -4.9908 -179.612
lowerback 5.89506 2.69247 4.32792
upperback -3.96604 3.89095 -0.759983
thorax -7.12964 1.64825 -3.6755
lowerneck -0.692038 16.9249 8.65665
upperneck 5.25986 22.6925 -5.40843
head 3.60469 11.3118 -2.11539
rclavicle 4.35835e-014 8.39865e-015
rhumerus -46.8188 18.6388 -101.127
rradius 32.9409
rwrist 17.7308
rhand -3.55096 -54.6
rfingers 7.12502
rthumb 22.1851 -83.3469
lclavicle 4.35835e-014 8.39865e-015
lhumerus -42.5446 -10.745 92.6725
lradius 37.4174
lwrist -11.4837
lhand -5.83796 -34.2884
lfingers 7.12502
lthumb 19.9881 -5.29641
rfemur -5.06912 12.8074 23.5441
rtibia 28.4061
rfoot -24.4478 -29.6327
rtoes 4.75482
lfemur -6.42545 -21.9426 -26.1526
ltibia 28.4448
lfoot -24.4714 17.4253
ltoes -28.3586
188
root 8.50398 15.1465 41.7065 178.241 -4.94466 -179.617
lowerback 5.9534 2.71301 4.32867
upperback -3.94865 3.92291 -0.750038
thorax -7.14256 1.66456 -3.67193
lowerneck -0.663331 16.8975 8.62665
upperneck 5.22839 22.6569 -5.40046
head 3.58042 11.2946 -2.11665
rclavicle 2.56867e-014 8.24956e-015
rhumerus -46.8006 18.6141 -101.07
rradius 32.9745
rwrist 17.8387
rhand -3.53522 -54.5128
rfingers 7.12502
rthumb 22.2002 -83.2579
lclavicle 2.56867e-014 8.24956e-015
lhumerus -42.4517 -10.6702 92.6559
lradius 37.2402
lwrist -11.5859
lhand -6.03785 -34.581
lfingers 7.12502
lthumb 19.796 -5.56912
rfemur -5.00069 12.8676 23.5462
rtibia 28.4293
rfoot -24.5657 -29.4674
rtoes 4.90772
lfemur -6.34958 -21.6918 -26.176
ltibia 28.4226
lfoot -24.451 17.2625
ltoes -29.1941
189
root 8.50332 15.1479 41.706 178.367 -4.87322 -179.637
lowerback 5.83705 2.72317 4.37608
upperback -3.98757 3.93017 -0.798763
thorax -7.10988 1.66383 -3.74443
lowerneck -0.614275 16.9135 8.62487
upperneck 5.20535 22.6764 -5.33291
head 3.55459 11.3074 -2.10036
rclavicle 3.82598e-014 9.74045e-015
rhumerus -46.7513 18.527 -101.077
rradius 32.9745
rwrist 18.0971
rhand -3.39259 -54.2982
rfingers 7.12502
rthumb 22.3371 -83.0269
lclavicle 3.82598e-014 9.74045e-015
lhumerus -42.3735 -10.4872 92.5015
lradius 37.1039
lwrist -11.8031
lhand -6.10345 -34.6951
lfingers 7.12502
lthumb 19.7329 -5.6767
rfemur -5.15672 12.9628 23.4882
rtibia 28.443
rfoot -24.4748 -29.6249
rtoes 5.18331
lfemur -6.4931 -21.4721 -26.1179
ltibia 28.4144
lfoot -24.5296 17.0249
ltoes -28.6894
190
root 8.5027 15.1486 41.7045 178.45 -4.89052 -179.669
lowerback 5.77686 2.71877 4.23268
upperback -4.02035 3.91093 -0.735735
thorax -7.12474 1.66122 -3.59353
lowerneck -0.651461 16.9262 8.59385
upperneck 5.2968 22.6946 -5.34154
head 3.59216 11.3137 -2.0893
rclavicle 1.71328e-014 3.27995e-015
rhumerus -46.804 18.6255 -101.033
rradius 33.0104
rwrist 18.093
rhand -3.41635 -54.1895
rfingers 7.12502
rthumb 22.3143 -82.921
lclavicle 1.71328e-014 3.27995e-015
lhumerus -42.3612 -10.286 92.5395
lradius 37.0532
lwrist -11.9478
lhand -6.00539 -34.5176
lfingers 7.12502
lthumb 19.8272 -5.5089
rfemur -5.23773 12.9475 23.4323
rtibia 28.4409
rfoot -24.3853 -29.7783
rtoes 5.69416
lfemur -6.56567 -21.4815 -26.1214
ltibia 28.3928
lfoot -24.5157 17.095
ltoes -29.3762
191
root 8.50189 15.1496 41.7034 178.418 -4.97565 -179.7
lowerback 5.78952 2.69145 4.22805
upperback -3.9703 3.87337 -0.775363
thorax -7.07947 1.64538 -3.62758
lowerneck -0.731143 16.903 8.67433
upperneck 5.25976 22.6596 -5.39158
head 3.60911 11.296 -2.11171
rclavicle -4.50931e-014 -6.70898e-015
rhumerus -46.7354 18.6453 -101.084
rradius 33.0415
rwrist 17.9559
rhand -3.63351 -54.2551
rfingers 7.12502
rthumb 22.1059 -83.0114
lclavicle -4.50931e-014 -6.70898e-015
lhumerus -42.3411 -10.4341 92.5321
lradius 37.1255
lwrist -11.8719
lhand -5.8806 -34.3592
lfingers 7.12502
lthumb 19.9471 -5.36293
rfemur -5.18465 12.8902 23.4059
rtibia 28.4496
rfoot -24.443 -29.7666
rtoes 6.11482
lfemur -6.53293 -21.4535 -26.1666
ltibia 28.3679
lfoot -24.1811 17.3148
ltoes -31.4856
192
root 8.49974 15.1523 41.7001 178.486 -5.12016 -179.684
lowerback 5.82981 2.68248 4.14671
upperback -4.03573 3.85777 -0.727713
thorax -7.18232 1.63742 -3.53538
lowerneck -0.878406 16.8667 8.64739
upperneck 5.39114 22.6027 -5.3433
head 3.66729 11.2648 -2.07819
rclavicle 6.56983e-014 1.93815e-015
rhumerus -46.8678 18.6191 -101.002
rradius 33.0912
rwrist 17.9054
rhand -3.83597 -54.2871
rfingers 7.12502
rthumb 21.9115 -83.0664
lclavicle 6.56983e-014 1.93815e-015
lhumerus -42.4395 -10.5553 92.6985
lradius 37.1979
lwrist -11.8174
lhand -5.87464 -34.3012
lfingers 7.12502
lthumb 19.9529 -5.30557
rfemur -5.22633 12.9109 23.4222
rtibia 28.4512
rfoot -24.5151 -29.8789
rtoes 6.14995
lfemur -6.62829 -21.4281 -26.1118
ltibia 28.3607
lfoot -23.7733 17.4083
ltoes -32.5873
193
root 8.49958 15.1478 41.7005 178.328 -4.94016 -179.698
lowerback 5.92482 2.74069 4.08143
upperback -3.93237 3.94013 -0.684693
thorax -7.12647 1.68806 -3.46478
lowerneck -0.853259 16.8655 8.55604
upperneck 5.28298 22.6016 -5.3266
head 3.60922 11.2646 -2.06945
rclavicle 5.66816e-014 1.76421e-014
rhumerus -46.7873 18.6652 -100.903
rradius 33.0714
rwrist 17.8871
rhand -3.78573 -54.3409
rfingers 7.12502
rthumb 21.9597 -83.1145
lclavicle 5.66816e-014 1.76421e-014
lhumerus -42.3072 -10.5194 92.7392
lradius 37.1743
lwrist -11.8027
lhand -5.8426 -34.0811
lfingers 7.12502
lthumb 19.9837 -5.08864
rfemur -5.06462 13.0028 23.4421
rtibia 28.4458
rfoot -24.4761 -29.7413
rtoes 5.75083
lfemur -6.42302 -21.2778 -26.1984
ltibia 28.3879
lfoot -23.975 17.2616
ltoes -30.763
